<svg width="89" height="89" viewBox="0 0 89 89" fill="none" xmlns="http://www.w3.org/2000/svg">
<path d="M80.0999 26.7H62.2999V8.89999C62.2999 6.53956 61.3622 4.27582 59.6932 2.60675C58.0241 0.937674 55.7603 0 53.3999 0H35.5999C33.2395 0 30.9758 0.937674 29.3067 2.60675C27.6376 4.27582 26.7 6.53956 26.7 8.89999V26.7H8.89999C6.53956 26.7 4.27582 27.6376 2.60675 29.3067C0.937674 30.9758 0 33.2395 0 35.5999V53.3999C0 55.7603 0.937674 58.0241 2.60675 59.6932C4.27582 61.3622 6.53956 62.2999 8.89999 62.2999H26.7V80.0999C26.7 82.4603 27.6376 84.7241 29.3067 86.3931C30.9758 88.0622 33.2395 88.9999 35.5999 88.9999H53.3999C55.7603 88.9999 58.0241 88.0622 59.6932 86.3931C61.3622 84.7241 62.2999 82.4603 62.2999 80.0999V62.2999H80.0999C82.4603 62.2999 84.7241 61.3622 86.3931 59.6932C88.0622 58.0241 88.9999 55.7603 88.9999 53.3999V35.5999C88.9999 33.2395 88.0622 30.9758 86.3931 29.3067C84.7241 27.6376 82.4603 26.7 80.0999 26.7ZM22.25 53.3999L8.89999 44.4999L22.25 35.5999V53.3999ZM44.4999 80.0999L35.5999 66.7499H53.3999L44.4999 80.0999ZM44.4999 53.3999C43.3309 53.3996 42.1733 53.1691 41.0934 52.7214C40.0134 52.2738 39.0322 51.6178 38.2058 50.791C37.3793 49.9641 36.7238 48.9826 36.2767 47.9024C35.8296 46.8222 35.5997 45.6645 35.5999 44.4955C35.6002 43.3264 35.8308 42.1689 36.2784 41.0889C36.7261 40.009 37.3821 39.0278 38.2089 38.2013C39.0358 37.3749 40.0173 36.7194 41.0975 36.2723C42.1777 35.8252 43.3353 35.5952 44.5044 35.5955C46.8654 35.5961 49.1295 36.5346 50.7985 38.2045C52.4676 39.8744 53.405 42.1389 53.4044 44.4999C53.4038 46.861 52.4653 49.125 50.7954 50.7941C49.1255 52.4632 46.861 53.4005 44.4999 53.3999ZM35.5999 22.25L44.4999 8.89999L53.3999 22.25H35.5999ZM66.7499 53.3999V35.5999L80.0999 44.4999L66.7499 53.3999Z" fill="black"/>
</svg>
