<svg width="11" height="11" viewBox="0 0 11 11" fill="none" xmlns="http://www.w3.org/2000/svg">
<path d="M4.25371 5.49998C4.25371 5.81907 4.38047 6.12509 4.6061 6.35071C4.83172 6.57634 5.13774 6.7031 5.45683 6.7031C5.77592 6.7031 6.08194 6.57634 6.30757 6.35071C6.5332 6.12509 6.65995 5.81907 6.65995 5.49998C6.65995 5.18089 6.5332 4.87487 6.30757 4.64924C6.08194 4.42361 5.77592 4.29686 5.45683 4.29686C5.13774 4.29686 4.83172 4.42361 4.6061 4.64924C4.38047 4.87487 4.25371 5.18089 4.25371 5.49998ZM10.1211 5.22283C9.10272 3.07762 7.56337 1.99804 5.4998 1.99804C3.43516 1.99804 1.89688 3.07762 0.878525 5.22391C0.837678 5.3104 0.816494 5.40486 0.816494 5.50052C0.816494 5.59617 0.837678 5.69063 0.878525 5.77713C1.89688 7.92233 3.43623 9.00192 5.4998 9.00192C7.56444 9.00192 9.10272 7.92234 10.1211 5.77605C10.2038 5.60203 10.2038 5.40008 10.1211 5.22283ZM5.45683 7.3906C4.41269 7.3906 3.56621 6.54412 3.56621 5.49998C3.56621 4.45584 4.41269 3.60936 5.45683 3.60936C6.50097 3.60936 7.34745 4.45584 7.34745 5.49998C7.34745 6.54412 6.50097 7.3906 5.45683 7.3906Z" fill="#E0E0E0"/>
</svg>
