<svg width="21" height="22" viewBox="0 0 21 22" fill="none" xmlns="http://www.w3.org/2000/svg">
<path d="M6.71076 21.9924C5.89619 21.687 5.19371 21.2 4.67754 20.583C4.16136 19.9659 3.85066 19.2417 3.77825 18.4869C3.82626 17.7067 4.09082 16.9472 4.55025 16.2707C5.00969 15.5942 5.65093 15.02 6.42147 14.5949C6.2944 14.8565 6.24255 15.1402 6.27024 15.4222C6.29793 15.7043 6.40435 15.9767 6.58066 16.2168C6.77811 16.4525 7.05197 16.6343 7.3688 16.7399C7.68563 16.8455 8.03174 16.8704 8.3649 16.8114C8.68178 16.7356 8.96872 16.5883 9.19547 16.3853C9.42222 16.1823 9.58038 15.9309 9.65327 15.6578C9.72616 15.3847 9.71108 15.0999 9.60963 14.8335C9.50817 14.567 9.3241 14.3288 9.07681 14.1439C8.53506 13.7702 8.11617 13.2835 7.86087 12.7313C7.60556 12.1791 7.52254 11.58 7.61985 10.9924C7.811 10.3579 8.22343 9.78749 8.80288 9.35619C8.36409 10.3483 9.59398 11.3218 10.4231 11.8058C11.8883 12.5523 13.2991 13.3735 14.6477 14.2649C15.3738 14.7518 15.9494 15.3819 16.3249 16.1007C16.7005 16.8194 16.8645 17.6051 16.8028 18.3899C16.6422 19.2169 16.2173 19.9904 15.5747 20.6258C14.9321 21.2612 14.0964 21.734 13.1592 21.9924C16.9806 21.2692 20.924 18.6842 21 15.0177C20.9624 13.581 20.4466 12.1828 19.5124 10.9855C18.5783 9.78814 17.2641 8.8408 15.7224 8.25344H15.5835C15.6505 8.39644 15.6837 8.55044 15.6796 8.70788C15.6885 8.60649 15.6885 8.50469 15.6796 8.40331C15.6966 8.525 15.6966 8.64325 15.6796 8.76081C15.5642 9.16223 15.2664 9.50833 14.8515 9.72318C14.4365 9.93803 13.9384 10.0041 13.4663 9.90687C13.0745 9.82485 12.7254 9.63516 12.4732 9.36719C11.2101 7.99219 12.4732 6.42744 12.6833 4.91219C12.7474 3.96258 12.5288 3.01457 12.0479 2.15592C11.5669 1.29727 10.8391 0.555741 9.93176 0C10.853 1.30694 9.62388 3.02569 8.73177 4.00331C7.83965 4.98094 6.54753 5.70763 5.49057 6.56013C4.35463 7.46171 3.31413 8.44657 2.38108 9.50331C1.38394 10.5398 0.672699 11.7534 0.299726 13.0547C-0.0732478 14.3559 -0.0984614 15.7118 0.225941 17.0225C0.667412 18.2773 1.50515 19.4049 2.64789 20.2826C3.79063 21.1603 5.19455 21.7543 6.70672 22H6.72369L6.71076 21.9924Z" fill="#F24E1E"/>
</svg>
