<svg width="34" height="32" viewBox="0 0 34 32" fill="none" xmlns="http://www.w3.org/2000/svg">
<path d="M30.2082 8H27.0832V7C27.0832 6.46957 26.8637 5.96086 26.473 5.58579C26.0823 5.21071 25.5524 5 24.9998 5H8.33317C7.78064 5 7.25073 5.21071 6.86003 5.58579C6.46933 5.96086 6.24984 6.46957 6.24984 7V8H3.12484C2.5723 8 2.0424 8.21071 1.6517 8.58579C1.261 8.96086 1.0415 9.46957 1.0415 10V12C1.0415 13.3261 1.59024 14.5979 2.56699 15.5355C3.05063 15.9998 3.62479 16.3681 4.25669 16.6194C4.8886 16.8707 5.56587 17 6.24984 17H6.7251C7.3387 18.8668 8.50865 20.52 10.0903 21.7554C11.672 22.9908 13.5961 23.7542 15.6248 23.9513V27H12.4998C12.2236 27 11.9586 27.1054 11.7633 27.2929C11.5679 27.4804 11.4582 27.7348 11.4582 28C11.4582 28.2652 11.5679 28.5196 11.7633 28.7071C11.9586 28.8946 12.2236 29 12.4998 29H20.8332C21.1094 29 21.3744 28.8946 21.5697 28.7071C21.7651 28.5196 21.8748 28.2652 21.8748 28C21.8748 27.7348 21.7651 27.4804 21.5697 27.2929C21.3744 27.1054 21.1094 27 20.8332 27H17.7082V23.9475C21.867 23.5438 25.3175 20.7425 26.5728 17H27.0832C28.4645 17 29.7893 16.4732 30.766 15.5355C31.7428 14.5979 32.2915 13.3261 32.2915 12V10C32.2915 9.46957 32.072 8.96086 31.6813 8.58579C31.2906 8.21071 30.7607 8 30.2082 8ZM6.24984 15C5.42104 15 4.62618 14.6839 4.04013 14.1213C3.45408 13.5587 3.12484 12.7956 3.12484 12V10H6.24984V14C6.24984 14.3333 6.26676 14.6667 6.30062 15H6.24984ZM24.9998 13.8875C24.9998 18.3275 21.2902 21.9675 16.7303 22H16.6665C14.4564 22 12.3368 21.1571 10.7739 19.6569C9.21114 18.1566 8.33317 16.1217 8.33317 14V7H24.9998V13.8875ZM30.2082 12C30.2082 12.7956 29.8789 13.5587 29.2929 14.1213C28.7068 14.6839 27.912 15 27.0832 15H27.0181C27.0608 14.6306 27.0825 14.2592 27.0832 13.8875V10H30.2082V12Z" fill="black"/>
</svg>
