<svg width="18" height="17" viewBox="0 0 18 17" fill="none" xmlns="http://www.w3.org/2000/svg">
<path d="M15.5472 11.1838C15.8372 11.3852 16.1976 11.3127 16.4092 11.0066C17.4122 9.58876 17.9999 7.63932 17.9999 5.64955C17.9999 3.65981 17.42 1.69423 16.4092 0.292542C16.1976 -0.0216282 15.8372 -0.0860734 15.5472 0.115318C15.2651 0.31671 15.2103 0.695328 15.4375 1.0256C16.2995 2.26618 16.7853 3.9337 16.7853 5.64955C16.7853 7.36539 16.2838 9.01683 15.4375 10.2735C15.2181 10.6038 15.2651 10.9824 15.5472 11.1838Z" fill="#1DC9A0" fill-opacity="0.85"/>
<path d="M12.6478 9.08044C12.9064 9.26577 13.2747 9.20933 13.4863 8.89518C14.0898 8.08155 14.4502 6.88126 14.4502 5.64875C14.4502 4.41623 14.0898 3.22399 13.4863 2.39426C13.2747 2.08815 12.9064 2.0237 12.6478 2.21704C12.3266 2.44259 12.2795 2.84538 12.5225 3.17566C12.977 3.82011 13.2356 4.71429 13.2356 5.64875C13.2356 6.5832 12.9692 7.46934 12.5225 8.12184C12.2874 8.46018 12.3266 8.84685 12.6478 9.08044Z" fill="#1DC9A0" fill-opacity="0.85"/>
<path d="M6.84887 9.53962C8.71393 9.53962 10.2342 7.83985 10.2342 5.76151C10.2342 3.69927 8.72176 2.08008 6.84887 2.08008C4.99169 2.08008 3.46365 3.73148 3.46365 5.77763C3.46365 7.84796 4.99169 9.53962 6.84887 9.53962ZM6.84887 8.32324C5.70479 8.32324 4.72528 7.20351 4.72528 5.77763C4.72528 4.37594 5.68915 3.29648 6.84887 3.29648C8.01648 3.29648 8.97252 4.35177 8.97252 5.76151C8.97252 7.18735 8.00866 8.32324 6.84887 8.32324ZM1.92772 16.9992H11.7701C13.0709 16.9992 13.69 16.5964 13.69 15.7103C13.69 13.5996 11.0962 10.5465 6.84887 10.5465C2.59381 10.5465 0 13.5996 0 15.7103C0 16.5964 0.619013 16.9992 1.92772 16.9992ZM1.55158 15.7827C1.34783 15.7827 1.26163 15.7264 1.26163 15.5572C1.26163 14.228 3.25201 11.763 6.84887 11.763C10.4379 11.763 12.4283 14.228 12.4283 15.5572C12.4283 15.7264 12.35 15.7827 12.1462 15.7827H1.55158Z" fill="#1DC9A0"/>
</svg>
