<svg width="7" height="12" viewBox="0 0 7 12" fill="none" xmlns="http://www.w3.org/2000/svg">
<path d="M6.00439 11.0562L1.24444 6.5186C1.14006 6.41961 1.07894 6.28345 1.07436 6.13967C1.06977 5.99589 1.12209 5.85611 1.21995 5.75067L5.68016 0.919119C5.77795 0.81305 5.83017 0.67282 5.82557 0.528626C5.82097 0.384432 5.75993 0.247813 5.65558 0.148189C5.60459 0.0991195 5.5443 0.060753 5.47825 0.0353496C5.41221 0.00994615 5.34174 -0.00197937 5.27101 0.000275832C5.20029 0.00253103 5.13072 0.0189213 5.06643 0.0484808C5.00214 0.0780402 4.94441 0.12017 4.89665 0.172388L0.436408 5.00294C0.143346 5.32109 -0.0131236 5.74157 0.000661664 6.17391C0.014447 6.60624 0.197385 7.0159 0.51012 7.31473L5.26904 11.8513C5.32005 11.9005 5.38041 11.939 5.44655 11.9645C5.51269 11.99 5.58327 12.002 5.65412 11.9997C5.72497 11.9975 5.79465 11.981 5.85903 11.9514C5.92342 11.9217 5.9812 11.8795 6.02897 11.8271C6.12676 11.721 6.17898 11.5808 6.17438 11.4366C6.16978 11.2924 6.10873 11.1558 6.00439 11.0562Z" fill="#788DFE"/>
</svg>
