<svg width="20" height="20" viewBox="0 0 20 20" fill="none" xmlns="http://www.w3.org/2000/svg">
<path opacity="0.2" d="M15 8.75C15 9.98613 14.6334 11.1945 13.9467 12.2223C13.2599 13.2501 12.2838 14.0512 11.1418 14.5242C9.99974 14.9973 8.74307 15.1211 7.53069 14.8799C6.31831 14.6388 5.20466 14.0435 4.33059 13.1694C3.45651 12.2953 2.86125 11.1817 2.62009 9.96931C2.37894 8.75693 2.50271 7.50027 2.97576 6.35823C3.4488 5.21619 4.24988 4.24007 5.27769 3.55331C6.3055 2.86656 7.51387 2.5 8.75 2.5C9.57076 2.5 10.3835 2.66166 11.1418 2.97575C11.9001 3.28984 12.5891 3.75022 13.1694 4.33058C13.7498 4.91095 14.2102 5.59994 14.5243 6.35823C14.8383 7.11651 15 7.92924 15 8.75Z" fill="#828282"/>
<path d="M17.9419 17.0593L14.031 13.1484C15.1668 11.7862 15.7337 10.0386 15.6137 8.26911C15.4938 6.49962 14.6962 4.84449 13.387 3.64805C12.0778 2.45161 10.3578 1.80597 8.58466 1.84546C6.81155 1.88494 5.12193 2.60651 3.86728 3.86004C2.61264 5.11358 1.88958 6.80257 1.84853 8.57564C1.80748 10.3487 2.45159 12.0694 3.64688 13.3796C4.84216 14.6899 6.49658 15.4889 8.26596 15.6104C10.0353 15.7319 11.7835 15.1665 13.1466 14.032L17.0576 17.9437C17.1156 18.0018 17.1846 18.0478 17.2604 18.0793C17.3363 18.1107 17.4176 18.1269 17.4998 18.1269C17.5819 18.1269 17.6632 18.1107 17.7391 18.0793C17.8149 18.0478 17.8839 18.0018 17.9419 17.9437C18 17.8856 18.0461 17.8167 18.0775 17.7408C18.1089 17.6649 18.1251 17.5836 18.1251 17.5015C18.1251 17.4194 18.1089 17.3381 18.0775 17.2622C18.0461 17.1863 18 17.1174 17.9419 17.0593ZM3.12475 8.7515C3.12475 7.63898 3.45465 6.55145 4.07274 5.62642C4.69082 4.70139 5.56933 3.98042 6.59716 3.55468C7.62499 3.12894 8.75599 3.01754 9.84714 3.23459C10.9383 3.45163 11.9406 3.98736 12.7272 4.77403C13.5139 5.5607 14.0496 6.56298 14.2667 7.65412C14.4837 8.74526 14.3723 9.87626 13.9466 10.9041C13.5208 11.9319 12.7999 12.8104 11.8748 13.4285C10.9498 14.0466 9.86227 14.3765 8.74975 14.3765C7.25842 14.3748 5.82864 13.7817 4.77411 12.7272C3.71957 11.6726 3.12641 10.2428 3.12475 8.7515Z" fill="#828282"/>
</svg>
