<svg width="15" height="15" viewBox="0 0 15 15" fill="none" xmlns="http://www.w3.org/2000/svg">
<g clip-path="url(#clip0_191_382)">
<path d="M4.375 6.87424V4.37424C4.37422 3.59927 4.66143 2.85166 5.18086 2.27653C5.70029 1.70141 6.41489 1.33981 7.18594 1.26192C7.95699 1.18404 8.72947 1.39543 9.35342 1.85506C9.97737 2.31469 10.4083 2.98977 10.5625 3.74924M3.125 6.87424H11.875C12.5654 6.87424 13.125 7.43389 13.125 8.12424V12.4992C13.125 13.1896 12.5654 13.7492 11.875 13.7492H3.125C2.43464 13.7492 1.875 13.1896 1.875 12.4992V8.12424C1.875 7.43389 2.43464 6.87424 3.125 6.87424Z" stroke="#787878" stroke-width="2" stroke-linecap="round" stroke-linejoin="round"/>
</g>
<defs>
<clipPath id="clip0_191_382">
<rect width="15" height="15" fill="white"/>
</clipPath>
</defs>
</svg>
