<svg width="15" height="15" viewBox="0 0 15 15" fill="none" xmlns="http://www.w3.org/2000/svg">
<path d="M2.5 8.75V8.125C2.5 7.62772 2.69754 7.15081 3.04917 6.79917C3.40081 6.44754 3.87772 6.25 4.375 6.25H5C5.16576 6.25 5.32473 6.31585 5.44194 6.43306C5.55915 6.55027 5.625 6.70924 5.625 6.875V10C5.625 10.1658 5.55915 10.3247 5.44194 10.4419C5.32473 10.5592 5.16576 10.625 5 10.625H4.375C3.87772 10.625 3.40081 10.4275 3.04917 10.0758C2.69754 9.72419 2.5 9.24728 2.5 8.75V8.75ZM12.5 8.75V8.125C12.5 7.62772 12.3025 7.15081 11.9508 6.79917C11.5992 6.44754 11.1223 6.25 10.625 6.25H10C9.83424 6.25 9.67527 6.31585 9.55806 6.43306C9.44085 6.55027 9.375 6.70924 9.375 6.875V10C9.375 10.1658 9.44085 10.3247 9.55806 10.4419C9.67527 10.5592 9.83424 10.625 10 10.625H10.625C11.1223 10.625 11.5992 10.4275 11.9508 10.0758C12.3025 9.72419 12.5 9.24728 12.5 8.75V8.75Z" stroke="#1DC9A0" stroke-linecap="round" stroke-linejoin="round"/>
<path d="M2.5002 8.75L2.38145 7.5C2.31447 6.78728 2.397 6.06843 2.62375 5.38943C2.85051 4.71044 3.21649 4.08625 3.69829 3.5568C4.18009 3.02734 4.7671 2.60429 5.42177 2.31469C6.07644 2.0251 6.78434 1.87534 7.5002 1.875V1.875C8.21606 1.87534 8.92396 2.0251 9.57863 2.31469C10.2333 2.60429 10.8203 3.02734 11.3021 3.5568C11.7839 4.08625 12.1499 4.71044 12.3766 5.38943C12.6034 6.06843 12.6859 6.78728 12.619 7.5L12.5002 8.75" stroke="#1DC9A0" stroke-linecap="round" stroke-linejoin="round"/>
<path d="M10.625 10.625V11.25C10.6439 11.5604 10.5397 11.8657 10.3349 12.0997C10.1302 12.3337 9.84138 12.4775 9.53125 12.5H7.5" stroke="#1DC9A0" stroke-linecap="round" stroke-linejoin="round"/>
</svg>
