<svg width="26" height="22" viewBox="0 0 26 22" fill="none" xmlns="http://www.w3.org/2000/svg">
<path d="M9.96381 10.4881C9.86426 10.47 9.76471 10.4609 9.66516 10.4609H5.52037C2.47964 10.4609 0 12.9315 0 15.9813V16.479C0 19.5198 2.47964 21.9994 5.52037 21.9994H6.2534C8.29865 21.9994 10.0996 20.8772 11.0407 19.203C11.5113 18.3976 11.7738 17.4745 11.7738 16.479V12.5605C11.7738 11.5017 10.9774 10.6238 9.96381 10.4881ZM9.96381 16.479C9.96381 18.5243 8.29865 20.1894 6.2534 20.1894H5.52037C3.47512 20.1894 1.80995 18.5243 1.80995 16.479V15.9813C1.80995 13.936 3.47512 12.2709 5.52037 12.2709H9.66516C9.82806 12.2709 9.96381 12.3976 9.96381 12.5605V16.479Z" fill="#A0A3B1"/>
<path d="M20.9053 0.0361991H20.308V0H15.5931C12.489 0 9.96411 2.52489 9.96411 5.62896V15.9004C9.96411 17.1403 10.3623 18.2805 11.041 19.2036C11.5116 18.3982 11.7741 17.4751 11.7741 16.4796V5.62896C11.7741 3.52036 13.4845 1.80995 15.5931 1.80995H19.8555V1.819H20.9053C22.6519 1.819 24.0727 3.23982 24.0727 4.98642V9.14027C24.0275 9.13122 23.9732 9.13122 23.9279 9.13122H20.3714C17.765 9.13122 15.6293 11.2489 15.6293 13.8643V14.2896C15.6293 16.8959 17.765 19.0317 20.3714 19.0317H20.9958C22.7514 19.0317 24.2989 18.0633 25.1044 16.6244C25.3759 16.1629 25.575 15.6561 25.6655 15.1041C25.7831 14.6787 25.8465 14.2443 25.8465 13.7919V4.98642C25.8465 2.25339 23.6293 0.0361991 20.9053 0.0361991ZM24.1813 14.2896C24.1813 14.5158 24.1541 14.733 24.1179 14.9502C23.8103 16.3891 22.5252 17.4751 20.9958 17.4751H20.3714C18.6157 17.4751 17.1858 16.0452 17.1858 14.2896V13.8643C17.1858 12.1086 18.6157 10.6787 20.3714 10.6787H23.9279C23.9822 10.6787 24.0275 10.6968 24.0727 10.724C24.1361 10.7692 24.1813 10.8416 24.1813 10.9321V14.2896Z" fill="#A0A3B1"/>
</svg>
