<svg width="22" height="22" viewBox="0 0 22 22" fill="none" xmlns="http://www.w3.org/2000/svg">
<path fill-rule="evenodd" clip-rule="evenodd" d="M11 0C4.92493 0 0 4.92493 0 11C0 17.0751 4.92493 22 11 22C17.0751 22 22 17.0751 22 11C22 4.92493 17.0751 0 11 0ZM6.42605 10.9693C6.28057 10.8337 6.08815 10.7599 5.88933 10.7634C5.69051 10.767 5.50081 10.8475 5.3602 10.9881C5.21959 11.1287 5.13905 11.3184 5.13554 11.5172C5.13203 11.7161 5.20583 11.9085 5.3414 12.054L8.41116 15.1237C8.55506 15.2674 8.75012 15.3482 8.95349 15.3482C9.15686 15.3482 9.35192 15.2674 9.49581 15.1237L16.6586 7.96093C16.7942 7.81545 16.868 7.62303 16.8645 7.42421C16.861 7.22539 16.7804 7.03569 16.6398 6.89508C16.4992 6.75448 16.3095 6.67393 16.1107 6.67043C15.9119 6.66692 15.7194 6.74072 15.574 6.87628L8.95349 13.4967L6.42605 10.9693Z" fill="#267353"/>
</svg>
