<svg width="18" height="22" viewBox="0 0 18 22" fill="none" xmlns="http://www.w3.org/2000/svg">
<path d="M8.21732 22C7.66345 22 2.83303 21.9364 0.853642 19.6029C0.145422 18.7676 -0.12697 17.7234 0.0546246 16.5884L0.0727841 16.4886C0.0909436 16.4068 0.100023 16.3342 0.118183 16.2616L0.454134 14.9359C0.744685 13.9281 1.04432 13.0746 1.38027 12.2756C1.75254 11.4039 2.23376 10.5686 2.89659 9.65152C3.75008 8.46207 4.77609 7.11827 6.15621 6.29201C6.61928 6.01962 7.34566 5.70183 8.19916 5.7563C9.06173 5.70183 9.77903 6.01054 10.2421 6.29201C11.5677 7.08195 12.5938 8.37127 13.5108 9.65152C14.1646 10.5686 14.6458 11.4039 15.0271 12.2756C15.4448 13.238 15.7989 14.3003 16.1076 15.508L16.2983 16.2616C16.5798 17.4783 16.3618 18.5951 15.6445 19.494C13.7287 21.9364 8.78026 22 8.21732 22ZM2.11573 15.7713L1.86149 16.8154C1.75254 17.5055 1.87057 18.0049 2.24284 18.4316C3.46861 19.8753 6.97339 20.1931 8.21732 20.1931H8.2264C9.49756 20.1931 13.0659 19.8662 14.2463 18.3772C14.6185 17.9141 14.7093 17.3693 14.5459 16.6792L14.3734 15.971C14.0828 14.8542 13.756 13.8827 13.3837 13.0019C13.0568 12.2483 12.6392 11.5219 12.058 10.7048C11.3135 9.6606 10.4328 8.49839 9.34321 7.85373C8.98002 7.64489 8.61683 7.54501 8.29904 7.57225L8.21732 7.58133L8.12652 7.57225C7.81781 7.54501 7.44554 7.64489 7.10051 7.85373C6.02002 8.49839 5.1302 9.6606 4.38566 10.7048C3.80456 11.5219 3.38689 12.2483 3.06002 13.0019C2.75131 13.7192 2.47892 14.5001 2.22468 15.3899L2.11573 15.7713Z" fill="#A0A3B1"/>
<path d="M14.5096 6.98233C12.5847 6.98233 11.0229 5.42061 11.0229 3.4957C11.0229 1.5708 12.5847 0 14.5096 0C16.4345 0 17.9962 1.56172 17.9962 3.48662C17.9962 5.41153 16.4345 6.98233 14.5096 6.98233ZM14.5096 1.81595C13.5834 1.81595 12.8389 2.56957 12.8389 3.48662C12.8389 4.40368 13.5925 5.1573 14.5096 5.1573C15.4266 5.1573 16.1802 4.40368 16.1802 3.48662C16.1802 2.56957 15.4266 1.81595 14.5096 1.81595Z" fill="#A0A3B1"/>
</svg>
