<svg width="21" height="21" viewBox="0 0 21 21" fill="none" xmlns="http://www.w3.org/2000/svg">
<path d="M20.486 8.18061C20.5053 8.04964 20.4987 7.91613 20.4664 7.78773C20.4342 7.65933 20.3769 7.53856 20.2978 7.43233C20.2188 7.3261 20.1196 7.2365 20.0059 7.16866C19.8922 7.10082 19.7663 7.05607 19.6353 7.03698L13.9463 6.20543L11.4033 1.02385C11.3116 0.865466 11.1797 0.734003 11.0211 0.642648C10.8625 0.551293 10.6826 0.503257 10.4995 0.503359C10.3165 0.503461 10.1366 0.551697 9.97811 0.643229C9.81958 0.734761 9.6879 0.86637 9.59629 1.02486L7.05432 6.20543L1.36536 7.03698C1.17967 7.06395 1.00521 7.14229 0.861667 7.26314C0.718128 7.384 0.611224 7.54257 0.553018 7.72096C0.494812 7.89935 0.48762 8.09045 0.532255 8.27271C0.57689 8.45496 0.671575 8.62112 0.805624 8.75242L4.92612 12.7924L3.95363 18.4944C3.92289 18.6795 3.94437 18.8695 4.01565 19.043C4.08694 19.2165 4.2052 19.3668 4.35716 19.4768C4.50912 19.5868 4.68875 19.6523 4.87586 19.6658C5.06298 19.6794 5.25017 19.6405 5.41639 19.5535L10.5003 16.8656L15.5832 19.5525C15.7493 19.6404 15.9366 19.6801 16.124 19.6671C16.3114 19.6541 16.4914 19.5889 16.6437 19.4789C16.796 19.369 16.9145 19.2186 16.9857 19.0448C17.057 18.871 17.0782 18.6807 17.047 18.4954L16.0745 12.7924L20.196 8.75142C20.3522 8.59777 20.454 8.39736 20.486 8.18061ZM15.1816 12.2578C15.1236 12.3148 15.0803 12.3849 15.0553 12.4622C15.0302 12.5395 15.0241 12.6217 15.0376 12.7018L16.0544 18.6626L10.7349 15.8508C10.6624 15.8131 10.582 15.7934 10.5003 15.7934C10.4187 15.7934 10.3382 15.8131 10.2658 15.8508L4.94626 18.6636L5.96304 12.7018C5.9765 12.6217 5.97044 12.5395 5.94538 12.4622C5.92032 12.3849 5.877 12.3148 5.81908 12.2578L1.51033 8.03262L7.46204 7.16282C7.54296 7.15076 7.61976 7.11928 7.68586 7.07107C7.75195 7.02285 7.80538 6.95934 7.84158 6.88597L10.5003 1.46882L13.1581 6.88698C13.1943 6.96047 13.2479 7.02407 13.3142 7.07229C13.3805 7.12051 13.4575 7.15192 13.5386 7.16382L19.4913 8.03262L15.1816 12.2578Z" fill="#A0A3B1" stroke="#A0A3B1"/>
</svg>
