<svg width="51" height="51" viewBox="0 0 51 51" fill="none" xmlns="http://www.w3.org/2000/svg">
<path fill-rule="evenodd" clip-rule="evenodd" d="M38.049 2.155C37.5426 1.3458 36.7965 0.714637 35.9145 0.349353C35.0326 -0.0159308 34.0587 -0.0971574 33.1284 0.116983L26.526 1.63356C25.8493 1.78908 25.1462 1.78908 24.4696 1.63356L17.8672 0.116983C16.9369 -0.0971574 15.963 -0.0159308 15.0811 0.349353C14.1991 0.714637 13.453 1.3458 12.9466 2.155L9.3479 7.89815C8.98069 8.48569 8.48496 8.98142 7.89742 9.3523L2.15426 12.951C1.34646 13.4569 0.716222 14.2018 0.351017 15.0823C-0.0141891 15.9627 -0.0962427 16.935 0.116245 17.8642L1.63282 24.474C1.78778 25.1494 1.78778 25.8512 1.63282 26.5267L0.116245 33.1328C-0.0970685 34.0625 -0.0154279 35.0356 0.349817 35.9168C0.715062 36.798 1.34577 37.5435 2.15426 38.0497L7.89742 41.6484C8.48496 42.0156 8.98069 42.5113 9.35157 43.0989L12.9502 48.842C13.9858 50.4981 15.9613 51.317 17.8672 50.88L24.4696 49.3634C25.1462 49.2079 25.8493 49.2079 26.526 49.3634L33.1321 50.88C34.0618 51.0933 35.0349 51.0117 35.9161 50.6464C36.7973 50.2812 37.5428 49.6505 38.049 48.842L41.6477 43.0989C42.0149 42.5113 42.5106 42.0156 43.0981 41.6484L48.845 38.0497C49.6535 37.5428 50.2839 36.7964 50.6485 35.9145C51.0132 35.0326 51.0938 34.059 50.8793 33.1291L49.3664 26.5267C49.2109 25.8501 49.2109 25.147 49.3664 24.4703L50.883 17.8642C51.0967 16.9349 51.0156 15.962 50.651 15.0809C50.2864 14.1997 49.6565 13.454 48.8487 12.9473L43.1018 9.34863C42.5151 8.98075 42.0192 8.48487 41.6513 7.89815L38.049 2.155ZM36.202 17.3097C36.4291 16.8921 36.4853 16.4026 36.3589 15.9443C36.2325 15.4861 35.9333 15.0947 35.5242 14.8525C35.115 14.6104 34.6279 14.5364 34.1654 14.6461C33.7028 14.7557 33.3008 15.0406 33.044 15.4406L23.4414 31.6933L17.6432 26.1411C17.4712 25.9645 17.2653 25.8243 17.038 25.729C16.8106 25.6336 16.5664 25.585 16.3198 25.5861C16.0733 25.5872 15.8295 25.6379 15.603 25.7352C15.3765 25.8326 15.1719 25.9745 15.0014 26.1526C14.8309 26.3308 14.6981 26.5414 14.6108 26.7719C14.5235 27.0025 14.4835 27.2483 14.4932 27.4947C14.503 27.741 14.5622 27.9829 14.6675 28.2058C14.7727 28.4288 14.9218 28.6283 15.1057 28.7924L22.5748 35.9493C22.7747 36.1404 23.0152 36.2839 23.2784 36.3691C23.5415 36.4543 23.8205 36.4789 24.0945 36.4411C24.3685 36.4033 24.6304 36.3041 24.8607 36.1509C25.0909 35.9977 25.2836 35.7945 25.4243 35.5564L36.202 17.3097Z" fill="#13A768"/>
</svg>
