<svg width="10" height="10" viewBox="0 0 10 10" fill="none" xmlns="http://www.w3.org/2000/svg">
<g clip-path="url(#clip0_231_7778)">
<path fill-rule="evenodd" clip-rule="evenodd" d="M5.29286 1.22359C5.25994 1.17644 5.21613 1.13793 5.16514 1.11134C5.11416 1.08475 5.0575 1.07086 5 1.07086C4.9425 1.07086 4.88584 1.08475 4.83486 1.11134C4.78387 1.13793 4.74006 1.17644 4.70714 1.22359L2.45143 4.44645L0.61 2.6043C0.560051 2.55423 0.496357 2.52011 0.426994 2.50628C0.357631 2.49244 0.285722 2.49952 0.220384 2.5266C0.155046 2.55368 0.0992208 2.59956 0.0599861 2.65841C0.0207515 2.71726 -0.000125975 2.78643 5.71894e-07 2.85716V7.50002C5.71894e-07 7.8789 0.15051 8.24226 0.418419 8.51017C0.686329 8.77808 1.04969 8.92859 1.42857 8.92859H8.57143C8.95031 8.92859 9.31367 8.77808 9.58158 8.51017C9.84949 8.24226 10 7.8789 10 7.50002V2.85716C10.0001 2.78643 9.97925 2.71726 9.94001 2.65841C9.90078 2.59956 9.84496 2.55368 9.77962 2.5266C9.71428 2.49952 9.64237 2.49244 9.57301 2.50628C9.50364 2.52011 9.43995 2.55423 9.39 2.6043L7.54857 4.44645L5.29286 1.22359Z" fill="#FFD233"/>
</g>
<defs>
<clipPath id="clip0_231_7778">
<rect width="10" height="10" fill="white"/>
</clipPath>
</defs>
</svg>
