<svg width="32" height="32" viewBox="0 0 32 32" fill="none" xmlns="http://www.w3.org/2000/svg">
<path opacity="0.2" d="M13 4V28L22 21H28C28.2652 21 28.5196 20.8946 28.7071 20.7071C28.8946 20.5196 29 20.2652 29 20V12C29 11.7348 28.8946 11.4804 28.7071 11.2929C28.5196 11.1054 28.2652 11 28 11H22L13 4Z" fill="white"/>
<path d="M12.5613 3.10105C12.7294 3.0191 12.9172 2.98597 13.1032 3.00542C13.2893 3.02486 13.4662 3.0961 13.6138 3.21105L22.3438 9.9998H28C28.5304 9.9998 29.0391 10.2105 29.4142 10.5856C29.7893 10.9607 30 11.4694 30 11.9998V19.9998C30 20.5302 29.7893 21.0389 29.4142 21.414C29.0391 21.7891 28.5304 21.9998 28 21.9998H22.3438L13.6138 28.7885C13.466 28.9034 13.289 28.9745 13.1029 28.9937C12.9168 29.013 12.729 28.9796 12.5609 28.8975C12.3928 28.8153 12.2511 28.6876 12.1519 28.5289C12.0528 28.3702 12.0001 28.1869 12 27.9998V3.9998C12 3.81246 12.0526 3.62888 12.1518 3.46998C12.251 3.31108 12.3929 3.18324 12.5613 3.10105ZM14 25.9548L21.3862 20.211C21.5614 20.0738 21.7775 19.9994 22 19.9998H28V11.9998H22C21.7775 12.0002 21.5614 11.9258 21.3862 11.7885L14 6.0448V25.9548ZM7 12.9998V18.9998C7 19.265 7.10536 19.5194 7.29289 19.7069C7.48043 19.8944 7.73478 19.9998 8 19.9998C8.26522 19.9998 8.51957 19.8944 8.70711 19.7069C8.89464 19.5194 9 19.265 9 18.9998V12.9998C9 12.7346 8.89464 12.4802 8.70711 12.2927C8.51957 12.1052 8.26522 11.9998 8 11.9998C7.73478 11.9998 7.48043 12.1052 7.29289 12.2927C7.10536 12.4802 7 12.7346 7 12.9998ZM3 10.9998V20.9998C3 21.265 3.10536 21.5194 3.29289 21.7069C3.48043 21.8944 3.73478 21.9998 4 21.9998C4.26522 21.9998 4.51957 21.8944 4.70711 21.7069C4.89464 21.5194 5 21.265 5 20.9998V10.9998C5 10.7346 4.89464 10.4802 4.70711 10.2927C4.51957 10.1052 4.26522 9.9998 4 9.9998C3.73478 9.9998 3.48043 10.1052 3.29289 10.2927C3.10536 10.4802 3 10.7346 3 10.9998Z" fill="white"/>
</svg>
