<svg width="143" height="30" viewBox="0 0 143 30" fill="none" xmlns="http://www.w3.org/2000/svg">
<path fill-rule="evenodd" clip-rule="evenodd" d="M72.096 29.0255C63.8735 29.0255 57.2002 22.5238 57.2002 14.5128C57.2002 6.50173 63.8735 1.52588e-05 72.096 1.52588e-05C80.3185 1.52588e-05 86.9919 6.50173 86.9919 14.5128C86.9919 22.5238 80.3185 29.0255 72.096 29.0255ZM69.1167 7.98162L78.0542 14.5124L69.1167 21.0431V7.98162ZM60.1794 14.5127C60.1794 8.11261 65.527 2.90254 72.096 2.90254C78.6651 2.90254 84.0127 8.11261 84.0127 14.5127C84.0127 20.9129 78.6651 26.1229 72.096 26.1229C65.527 26.1229 60.1794 20.9129 60.1794 14.5127Z" fill="#3F414E"/>
<path fill-rule="evenodd" clip-rule="evenodd" d="M135.552 5.73383C138.633 5.73383 141.138 8.17378 141.138 11.1761H143C143 7.16696 139.667 3.91973 135.552 3.91973C131.437 3.91973 128.104 7.16696 128.104 11.1761C128.104 15.1853 131.437 18.4325 135.552 18.4325V22.0607L140.207 17.5254L135.552 12.9902V16.6184C132.47 16.6184 129.966 14.1784 129.966 11.1761C129.966 8.17378 132.47 5.73383 135.552 5.73383ZM134.007 9.05394C134.081 9.08115 134.137 9.11743 134.193 9.16279C134.206 9.17795 134.219 9.19171 134.231 9.20504C134.264 9.23954 134.294 9.27118 134.314 9.31698C134.342 9.38048 134.351 9.45304 134.351 9.53468C134.351 9.63445 134.333 9.72515 134.305 9.79772C134.277 9.87028 134.23 9.93378 134.174 9.97913C134.118 10.0245 134.053 10.0517 133.969 10.0789C133.886 10.1061 133.802 10.1152 133.699 10.1152H133.281V10.7138H133.681C133.886 10.7138 134.025 10.7592 134.128 10.859C134.23 10.9587 134.277 11.0857 134.277 11.249C134.277 11.3216 134.267 11.3941 134.239 11.4485C134.211 11.503 134.184 11.5574 134.137 11.6027C134.09 11.6481 134.035 11.6753 133.969 11.7025C133.904 11.7297 133.83 11.7388 133.737 11.7388C133.662 11.7388 133.597 11.7388 133.532 11.7116C133.467 11.6844 133.411 11.6572 133.364 11.6209C133.318 11.5846 133.281 11.5392 133.253 11.4848C133.225 11.4304 133.206 11.3669 133.206 11.3034H132.415C132.415 11.4667 132.452 11.6027 132.517 11.7388C132.582 11.8749 132.685 11.9837 132.796 12.0744C132.908 12.1651 133.057 12.2377 133.206 12.283C133.355 12.3284 133.532 12.3556 133.709 12.3556C133.914 12.3556 134.09 12.3284 134.258 12.283C134.426 12.2377 134.565 12.1651 134.686 12.0744C134.807 11.9837 134.9 11.8749 134.966 11.7297C135.031 11.5846 135.068 11.4304 135.068 11.249C135.068 11.1674 135.059 11.0857 135.031 11.0041C135.003 10.9225 134.956 10.8499 134.91 10.7773C134.863 10.7048 134.798 10.6413 134.724 10.5778C134.649 10.5143 134.556 10.4689 134.463 10.4236C134.686 10.3419 134.854 10.224 134.966 10.0698C135.077 9.91564 135.133 9.72515 135.133 9.51653C135.133 9.33512 135.096 9.17186 135.021 9.0358C134.947 8.89974 134.854 8.77276 134.724 8.68205C134.593 8.59135 134.454 8.50971 134.277 8.46436C134.1 8.41901 133.914 8.3918 133.718 8.3918C133.55 8.3918 133.383 8.40994 133.225 8.45529C133.066 8.50064 132.927 8.5732 132.796 8.66391C132.666 8.75461 132.564 8.86346 132.489 9.00859C132.415 9.15372 132.377 9.31698 132.377 9.50746H133.169C133.169 9.4349 133.187 9.37141 133.215 9.30791C133.243 9.24442 133.281 9.19907 133.336 9.15372C133.392 9.10836 133.448 9.08115 133.523 9.05394C133.597 9.02673 133.672 9.01766 133.755 9.01766C133.848 9.01766 133.932 9.02673 134.007 9.05394ZM137.823 12.2825C137.656 12.346 137.479 12.3732 137.274 12.3732C137.069 12.3732 136.892 12.346 136.725 12.2825C136.557 12.219 136.418 12.1192 136.306 11.9831C136.194 11.8471 136.092 11.6747 136.036 11.4661C135.98 11.2575 135.943 11.0126 135.943 10.7223V10.0511C135.943 9.76087 135.98 9.5069 136.045 9.30735C136.11 9.1078 136.204 8.92639 136.325 8.79033C136.446 8.65428 136.585 8.5545 136.753 8.49101C136.92 8.42752 137.097 8.4003 137.302 8.4003C137.507 8.4003 137.684 8.42752 137.851 8.49101C138.019 8.5545 138.159 8.65428 138.27 8.79033C138.382 8.92639 138.475 9.09873 138.54 9.30735C138.606 9.51597 138.633 9.76087 138.633 10.0511V10.7223C138.633 11.0126 138.596 11.2666 138.531 11.4661C138.466 11.6657 138.373 11.8471 138.252 11.9831C138.131 12.1192 137.991 12.219 137.823 12.2825ZM137.796 9.51683C137.824 9.63475 137.833 9.77988 137.833 9.95222H137.842V10.8321C137.842 11.0044 137.833 11.1495 137.805 11.2674C137.777 11.3854 137.74 11.4761 137.693 11.5486C137.647 11.6212 137.582 11.6756 137.516 11.7028C137.451 11.73 137.367 11.7482 137.284 11.7482C137.2 11.7482 137.125 11.73 137.051 11.7028C136.976 11.6756 136.93 11.6212 136.874 11.5486C136.818 11.4761 136.79 11.3854 136.762 11.2674C136.734 11.1495 136.725 11.0044 136.725 10.8321V9.95222C136.725 9.77988 136.734 9.63475 136.762 9.51683C136.79 9.39892 136.828 9.29914 136.874 9.22658C136.921 9.15401 136.986 9.09959 137.051 9.07238C137.116 9.04517 137.2 9.02703 137.284 9.02703C137.367 9.02703 137.442 9.04517 137.516 9.07238C137.591 9.09959 137.647 9.15401 137.693 9.22658C137.74 9.29914 137.768 9.39892 137.796 9.51683Z" fill="#3F414E"/>
<path fill-rule="evenodd" clip-rule="evenodd" d="M9.83122 23.2208V19.5926C13.9462 19.5926 17.2791 16.3454 17.2791 12.3363C17.2791 8.32712 13.9462 5.07989 9.83122 5.07989C5.71624 5.07989 2.3833 8.32712 2.3833 12.3363H4.24528C4.24528 9.33394 6.74964 6.89398 9.83122 6.89398C12.9128 6.89398 15.4172 9.33394 15.4172 12.3363C15.4172 15.3386 12.9128 17.7785 9.83122 17.7785V14.1504L5.17627 18.6856L9.83122 23.2208ZM7.97853 11.8918H7.55958V11.3022H7.99715C8.09956 11.3022 8.18334 11.2841 8.26713 11.2659C8.35092 11.2478 8.41609 11.2115 8.47195 11.1662C8.52781 11.1208 8.57436 11.0573 8.60229 10.9848C8.63022 10.9122 8.64884 10.8215 8.64884 10.7217C8.64884 10.6401 8.63953 10.5675 8.6116 10.504C8.58367 10.4405 8.53712 10.3861 8.49057 10.3408C8.44402 10.2954 8.37885 10.2591 8.30437 10.2319C8.22989 10.2047 8.1461 10.1956 8.05301 10.1956C7.96922 10.1956 7.89474 10.2138 7.82026 10.2319C7.74578 10.2501 7.68992 10.2863 7.63406 10.3317C7.5782 10.377 7.54096 10.4224 7.51303 10.4859C7.4851 10.5494 7.46648 10.6129 7.46648 10.6854H6.67514C6.67514 10.495 6.71238 10.3226 6.78686 10.1866C6.86134 10.0505 6.97306 9.94166 7.09409 9.84188C7.21512 9.74211 7.36407 9.67862 7.52234 9.63326C7.68061 9.58791 7.84819 9.56977 8.01577 9.56977C8.22058 9.56977 8.39747 9.59698 8.57436 9.64233C8.75125 9.68769 8.8909 9.76932 9.02123 9.86003C9.15157 9.95073 9.24467 10.0777 9.31915 10.2138C9.39363 10.3498 9.43087 10.5131 9.43087 10.6945C9.43087 10.9031 9.37501 11.0845 9.26329 11.2478C9.15157 11.4111 8.984 11.5199 8.76056 11.6016C8.86297 11.6469 8.94676 11.6923 9.02123 11.7558C9.09571 11.8192 9.15157 11.8827 9.20743 11.9553C9.26329 12.0279 9.30053 12.1004 9.32846 12.1821C9.35639 12.2637 9.3657 12.3453 9.3657 12.427C9.3657 12.6084 9.32846 12.7716 9.26329 12.9077C9.19812 13.0438 9.10502 13.1617 8.984 13.2524C8.86297 13.3431 8.72332 13.4156 8.55574 13.461C8.38816 13.5064 8.20196 13.5336 8.00646 13.5336C7.82957 13.5336 7.66199 13.5064 7.50372 13.461C7.34545 13.4156 7.21512 13.3431 7.09409 13.2524C6.97306 13.1617 6.87996 13.0438 6.81479 12.9168C6.74962 12.7898 6.71238 12.6447 6.71238 12.4814H7.50372C7.50372 12.5449 7.52234 12.6084 7.55027 12.6628C7.5782 12.7172 7.61544 12.7535 7.66199 12.7989C7.70854 12.8442 7.7644 12.8714 7.82957 12.8896C7.89474 12.9077 7.95991 12.9168 8.03439 12.9168C8.11818 12.9168 8.20196 12.8986 8.26713 12.8805C8.3323 12.8624 8.38816 12.8261 8.43471 12.7807C8.48126 12.7354 8.50919 12.69 8.53712 12.6265C8.56505 12.563 8.57436 12.4995 8.57436 12.427C8.57436 12.2637 8.52781 12.1367 8.4254 12.0369C8.32299 11.9372 8.17403 11.8918 7.97853 11.8918ZM12.9035 11.2115C12.9035 10.9213 12.8756 10.6673 12.8104 10.4677C12.7452 10.2682 12.6521 10.0868 12.5404 9.95073C12.4287 9.81467 12.2797 9.7149 12.1214 9.65141C11.9632 9.58791 11.777 9.5607 11.5722 9.5607C11.3673 9.5607 11.1905 9.58791 11.0229 9.65141C10.8553 9.7149 10.7157 9.81467 10.5946 9.95073C10.4736 10.0868 10.3805 10.2591 10.3153 10.4677C10.2502 10.6764 10.2129 10.9213 10.2129 11.2115V11.8827C10.2129 12.173 10.2408 12.427 10.306 12.6265C10.3712 12.8261 10.4643 13.0075 10.576 13.1435C10.6877 13.2796 10.8367 13.3794 10.995 13.4429C11.1532 13.5064 11.3394 13.5336 11.5442 13.5336C11.7491 13.5336 11.9259 13.5064 12.0935 13.4429C12.2611 13.3794 12.4007 13.2796 12.5218 13.1435C12.6428 13.0075 12.7359 12.8351 12.8011 12.6265C12.8662 12.4179 12.9035 12.173 12.9035 11.8827V11.2115ZM12.0751 12.4276C12.103 12.3097 12.1123 12.1645 12.1123 11.9922H12.103V11.1124C12.103 10.94 12.0937 10.7949 12.0658 10.677C12.0471 10.5591 12.0099 10.4593 11.9633 10.3867C11.9168 10.3142 11.8516 10.2597 11.7865 10.2325C11.7213 10.2053 11.6375 10.1872 11.5537 10.1872C11.4699 10.1872 11.3954 10.2053 11.321 10.2325C11.2465 10.2597 11.1906 10.3142 11.1441 10.3867C11.0975 10.4593 11.0603 10.5591 11.0324 10.677C11.0044 10.7949 10.9951 10.94 10.9951 11.1124V11.9922C10.9951 12.1645 11.0044 12.3097 11.0324 12.4276C11.0603 12.5455 11.0975 12.6362 11.1441 12.7088C11.1906 12.7813 11.2558 12.8358 11.321 12.863C11.3861 12.8902 11.4699 12.9083 11.5537 12.9083C11.6375 12.9083 11.712 12.8902 11.7865 12.863C11.8609 12.8358 11.9168 12.7813 11.9633 12.7088C12.0099 12.6362 12.0471 12.5455 12.0751 12.4276Z" fill="#3F414E"/>
</svg>
