<svg width="6" height="5" viewBox="0 0 6 5" fill="none" xmlns="http://www.w3.org/2000/svg">
<path d="M3.52311 1.70453C3.78832 1.70453 4.04268 1.79233 4.23021 1.94861C4.41775 2.10489 4.52311 2.31685 4.52311 2.53786C4.52311 2.75888 4.41775 2.97084 4.23021 3.12712C4.04268 3.2834 3.78832 3.3712 3.52311 3.3712C3.25789 3.3712 3.00354 3.2834 2.816 3.12712C2.62846 2.97084 2.52311 2.75888 2.52311 2.53786C2.52311 2.31685 2.62846 2.10489 2.816 1.94861C3.00354 1.79233 3.25789 1.70453 3.52311 1.70453ZM3.52311 2.1212C3.3905 2.1212 3.26332 2.16509 3.16955 2.24323C3.07578 2.32137 3.02311 2.42736 3.02311 2.53786C3.02311 2.64837 3.07578 2.75435 3.16955 2.83249C3.26332 2.91063 3.3905 2.95453 3.52311 2.95453C3.65571 2.95453 3.78289 2.91063 3.87666 2.83249C3.97043 2.75435 4.02311 2.64837 4.02311 2.53786C4.02311 2.42736 3.97043 2.32137 3.87666 2.24323C3.78289 2.16509 3.65571 2.1212 3.52311 2.1212ZM3.02311 4.6212C2.96061 4.6212 2.90811 4.5837 2.89811 4.5337L2.80561 3.98161C2.64811 3.92953 2.51311 3.8587 2.38311 3.77536L1.76061 3.98578C1.70561 4.00245 1.63811 3.98578 1.60811 3.93995L1.10811 3.21911C1.0928 3.19765 1.08741 3.17227 1.09293 3.14773C1.09845 3.12319 1.11451 3.10117 1.13811 3.08578L1.66561 2.73995L1.64811 2.53786L1.66561 2.32953L1.13811 1.98995C1.11451 1.97456 1.09845 1.95253 1.09293 1.92799C1.08741 1.90345 1.0928 1.87808 1.10811 1.85661L1.60811 1.13578C1.63811 1.08995 1.70561 1.0712 1.76061 1.08995L2.38311 1.29828C2.51311 1.21703 2.64811 1.1462 2.80561 1.09411L2.89811 0.542029C2.90811 0.492029 2.96061 0.454529 3.02311 0.454529H4.02311C4.08561 0.454529 4.13811 0.492029 4.14811 0.542029L4.24061 1.09411C4.39811 1.1462 4.53311 1.21703 4.66311 1.29828L5.28561 1.08995C5.34061 1.0712 5.40811 1.08995 5.43811 1.13578L5.93811 1.85661C5.97061 1.90245 5.95561 1.9587 5.90811 1.98995L5.38061 2.32953L5.39811 2.53786L5.38061 2.7462L5.90811 3.08578C5.95561 3.11703 5.97061 3.17328 5.93811 3.21911L5.43811 3.93995C5.40811 3.98578 5.34061 4.00453 5.28561 3.98578L4.66311 3.77745C4.53311 3.8587 4.39811 3.92953 4.24061 3.98161L4.14811 4.5337C4.13811 4.5837 4.08561 4.6212 4.02311 4.6212H3.02311ZM3.33561 0.871195L3.24311 1.41495C2.94311 1.46703 2.67811 1.60036 2.48561 1.78578L1.88311 1.56911L1.69561 1.83995L2.22311 2.16286C2.12311 2.40592 2.12311 2.66981 2.22311 2.91286L1.69311 3.23786L1.88061 3.5087L2.48811 3.29203C2.68061 3.47536 2.94311 3.6087 3.24061 3.6587L3.33311 4.20453H3.71311L3.80561 3.66078C4.10311 3.6087 4.36561 3.47536 4.55811 3.29203L5.16561 3.5087L5.35311 3.23786L4.82311 2.91495C4.92311 2.6712 4.92311 2.40661 4.82311 2.16286L5.35061 1.83995L5.16311 1.56911L4.56061 1.78578C4.36416 1.59626 4.09769 1.46654 3.80311 1.41703L3.71061 0.871195H3.33561Z" fill="white"/>
</svg>
