<svg width="34" height="32" viewBox="0 0 34 32" fill="none" xmlns="http://www.w3.org/2000/svg">
<path d="M30.2083 8H27.0833V7C27.0833 6.46957 26.8638 5.96086 26.4731 5.58579C26.0824 5.21071 25.5525 5 25 5H8.33329C7.78076 5 7.25085 5.21071 6.86015 5.58579C6.46945 5.96086 6.24996 6.46957 6.24996 7V8H3.12496C2.57243 8 2.04252 8.21071 1.65182 8.58579C1.26112 8.96086 1.04163 9.46957 1.04163 10V12C1.04163 13.3261 1.59036 14.5979 2.56711 15.5355C3.05075 15.9998 3.62491 16.3681 4.25682 16.6194C4.88872 16.8707 5.56599 17 6.24996 17H6.72522C7.33882 18.8668 8.50877 20.52 10.0905 21.7554C11.6721 22.9908 13.5963 23.7542 15.625 23.9513V27H12.5C12.2237 27 11.9587 27.1054 11.7634 27.2929C11.568 27.4804 11.4583 27.7348 11.4583 28C11.4583 28.2652 11.568 28.5196 11.7634 28.7071C11.9587 28.8946 12.2237 29 12.5 29H20.8333C21.1096 29 21.3745 28.8946 21.5699 28.7071C21.7652 28.5196 21.875 28.2652 21.875 28C21.875 27.7348 21.7652 27.4804 21.5699 27.2929C21.3745 27.1054 21.1096 27 20.8333 27H17.7083V23.9475C21.8671 23.5438 25.3177 20.7425 26.5729 17H27.0833C28.4646 17 29.7894 16.4732 30.7661 15.5355C31.7429 14.5979 32.2916 13.3261 32.2916 12V10C32.2916 9.46957 32.0721 8.96086 31.6814 8.58579C31.2907 8.21071 30.7608 8 30.2083 8ZM6.24996 15C5.42116 15 4.6263 14.6839 4.04025 14.1213C3.4542 13.5587 3.12496 12.7956 3.12496 12V10H6.24996V14C6.24996 14.3333 6.26689 14.6667 6.30074 15H6.24996ZM25 13.8875C25 18.3275 21.2903 21.9675 16.7304 22H16.6666C14.4565 22 12.3369 21.1571 10.7741 19.6569C9.21127 18.1566 8.33329 16.1217 8.33329 14V7H25V13.8875ZM30.2083 12C30.2083 12.7956 29.8791 13.5587 29.293 14.1213C28.707 14.6839 27.9121 15 27.0833 15H27.0182C27.0609 14.6306 27.0827 14.2592 27.0833 13.8875V10H30.2083V12Z" fill="#A0A3B1"/>
</svg>
