<svg width="375" height="362" viewBox="0 0 375 362" fill="none" xmlns="http://www.w3.org/2000/svg">
<path fill-rule="evenodd" clip-rule="evenodd" d="M0 78.75C0 47.1496 0 31.3494 7.58387 19.9993C10.867 15.0858 15.0858 10.867 19.9993 7.58387C31.3494 0 47.1496 0 78.75 0H296.25C327.85 0 343.651 0 355.001 7.58387C359.914 10.867 364.133 15.0858 367.416 19.9993C375 31.3494 375 47.1496 375 78.75V283.25C375 314.85 375 330.651 367.416 342.001C364.133 346.914 359.914 351.133 355.001 354.416C343.651 362 327.85 362 296.25 362H78.75C47.1496 362 31.3494 362 19.9993 354.416C15.0858 351.133 10.867 346.914 7.58387 342.001C0 330.651 0 314.85 0 283.25V78.75Z" fill="#CBCDCE" fill-opacity="0.47"/>
</svg>
