<svg width="12" height="11" viewBox="0 0 12 11" fill="none" xmlns="http://www.w3.org/2000/svg">
<g clip-path="url(#clip0_231_8437)">
<path d="M6 7.74577C7.21481 7.74577 8.20313 6.83982 8.20313 5.72625V2.01953C8.20313 0.905951 7.21481 0 6 0C4.78519 0 3.79688 0.905951 3.79688 2.01953V5.72625C3.79688 6.83982 4.78519 7.74577 6 7.74577ZM6 0.429687C6.95636 0.429687 7.73438 1.14287 7.73438 2.01953V3.79509H4.26563V2.01953C4.26563 1.14287 5.04364 0.429687 6 0.429687ZM4.26563 4.22478H7.73438V5.72625C7.73438 6.60291 6.95636 7.31609 6 7.31609C5.04364 7.31609 4.26563 6.60291 4.26563 5.72625V4.22478Z" fill="#1DC9A0"/>
<path d="M5.42969 2.82117H6.57025C6.69971 2.82117 6.80463 2.72499 6.80463 2.60632C6.80463 2.48766 6.69971 2.39148 6.57025 2.39148H5.42969C5.30023 2.39148 5.19531 2.48766 5.19531 2.60632C5.19531 2.72499 5.30023 2.82117 5.42969 2.82117Z" fill="#1DC9A0"/>
<path d="M5.42969 2.02045H6.57025C6.69971 2.02045 6.80463 1.92427 6.80463 1.8056C6.80463 1.68694 6.69971 1.59076 6.57025 1.59076H5.42969C5.30023 1.59076 5.19531 1.68694 5.19531 1.8056C5.19531 1.92427 5.30023 2.02045 5.42969 2.02045Z" fill="#1DC9A0"/>
<path d="M9.00049 5.51141C8.87113 5.51141 8.76612 5.60759 8.76612 5.72626C8.76612 7.1245 7.52512 8.26208 5.99976 8.26208C4.4744 8.26208 3.2334 7.1245 3.2334 5.72626C3.2334 5.60759 3.12848 5.51141 2.99902 5.51141C2.86957 5.51141 2.76465 5.60759 2.76465 5.72626C2.76465 7.14406 3.85587 8.33249 5.30872 8.62345V9.70959H5.29031C4.64331 9.70959 4.11697 10.1921 4.11697 10.7851C4.11697 10.9038 4.22189 11 4.35135 11H7.64816C7.77762 11 7.88254 10.9038 7.88254 10.7851C7.88254 10.1921 7.3562 9.70959 6.7092 9.70959H6.6908V8.62345C8.14374 8.33249 9.23487 7.14406 9.23487 5.72626C9.23487 5.60759 9.12995 5.51141 9.00049 5.51141ZM7.37378 10.5703H4.62582C4.7226 10.3195 4.98389 10.1393 5.29031 10.1393H6.70929C7.01563 10.1393 7.27692 10.3195 7.37378 10.5703ZM6.22205 9.70959H5.77747V8.68463C5.85098 8.68925 5.92505 8.69177 5.99976 8.69177C6.07446 8.69177 6.14853 8.68925 6.22205 8.68463V9.70959Z" fill="#1DC9A0"/>
<path d="M1.17188 2.00677C1.04242 2.00677 0.9375 2.10295 0.9375 2.22162V4.31877C0.9375 4.43736 1.04242 4.53362 1.17188 4.53362C1.30133 4.53362 1.40625 4.43736 1.40625 4.31877V2.22162C1.40625 2.10295 1.30133 2.00677 1.17188 2.00677Z" fill="#1DC9A0"/>
<path d="M3.04688 3.99669C3.17633 3.99669 3.28125 3.90051 3.28125 3.78184V2.75848C3.28125 2.63982 3.17633 2.54364 3.04688 2.54364C2.91742 2.54364 2.8125 2.63982 2.8125 2.75848V3.78184C2.8125 3.90051 2.91742 3.99669 3.04688 3.99669Z" fill="#1DC9A0"/>
<path d="M0.234375 1.16016C0.104919 1.16016 0 1.25633 0 1.375V4.94853C0 5.0672 0.104919 5.16338 0.234375 5.16338C0.363831 5.16338 0.46875 5.0672 0.46875 4.94853V1.375C0.46875 1.25633 0.363831 1.16016 0.234375 1.16016Z" fill="#1DC9A0"/>
<path d="M2.10937 1.78998C1.97992 1.78998 1.875 1.88615 1.875 2.00482V4.90882C1.875 5.02748 1.97992 5.12366 2.10937 5.12366C2.23883 5.12366 2.34375 5.02748 2.34375 4.90882V2.00482C2.34375 1.88615 2.23883 1.78998 2.10937 1.78998Z" fill="#1DC9A0"/>
<path d="M10.8281 2.00677C10.6987 2.00677 10.5938 2.10295 10.5938 2.22162V4.31877C10.5938 4.43736 10.6987 4.53362 10.8281 4.53362C10.9576 4.53362 11.0625 4.43736 11.0625 4.31877V2.22162C11.0625 2.10295 10.9576 2.00677 10.8281 2.00677Z" fill="#1DC9A0"/>
<path d="M8.95312 3.99669C9.08258 3.99669 9.1875 3.90051 9.1875 3.78184V2.75848C9.1875 2.63982 9.08258 2.54364 8.95312 2.54364C8.82367 2.54364 8.71875 2.63982 8.71875 2.75848V3.78184C8.71875 3.90051 8.82367 3.99669 8.95312 3.99669Z" fill="#1DC9A0"/>
<path d="M11.7656 1.16016C11.6362 1.16016 11.5312 1.25633 11.5312 1.375V4.94853C11.5312 5.0672 11.6362 5.16338 11.7656 5.16338C11.8951 5.16338 12 5.0672 12 4.94853V1.375C12 1.25633 11.8951 1.16016 11.7656 1.16016Z" fill="#1DC9A0"/>
<path d="M9.89062 4.69409C9.82901 4.69409 9.76849 4.71692 9.72491 4.75687C9.68134 4.79707 9.65625 4.85229 9.65625 4.90894C9.65625 4.9655 9.68134 5.02089 9.72491 5.06084C9.76849 5.10087 9.82901 5.12378 9.89062 5.12378C9.95224 5.12378 10.0128 5.10087 10.0563 5.06084C10.0999 5.02089 10.125 4.9655 10.125 4.90894C10.125 4.85229 10.0999 4.79707 10.0563 4.75687C10.0128 4.71692 9.95224 4.69409 9.89062 4.69409Z" fill="#1DC9A0"/>
<path d="M9.89062 1.78998C9.76117 1.78998 9.65625 1.88615 9.65625 2.00482V3.99665C9.65625 4.11532 9.76117 4.2115 9.89062 4.2115C10.0201 4.2115 10.125 4.11532 10.125 3.99665V2.00482C10.125 1.88615 10.0201 1.78998 9.89062 1.78998Z" fill="#1DC9A0"/>
<path d="M6 6.84277C6.67163 6.84277 7.21811 6.34192 7.21811 5.72626C7.21811 5.60759 7.1131 5.51141 6.98373 5.51141C6.85428 5.51141 6.74936 5.60759 6.74936 5.72626C6.74936 6.10492 6.41318 6.41308 6 6.41308C5.87054 6.41308 5.76562 6.50926 5.76562 6.62793C5.76562 6.74659 5.87054 6.84277 6 6.84277Z" fill="#1DC9A0"/>
<path d="M6.9834 5.19922C7.04511 5.19922 7.10553 5.17622 7.14911 5.13628C7.19269 5.09633 7.21777 5.04086 7.21777 4.98437C7.21777 4.92789 7.19278 4.87242 7.14911 4.83247C7.10553 4.79253 7.04511 4.76953 6.9834 4.76953C6.92178 4.76953 6.86136 4.79253 6.81778 4.83247C6.7742 4.87242 6.74902 4.92789 6.74902 4.98437C6.74902 5.04086 6.77411 5.09633 6.81778 5.13628C6.86136 5.17622 6.92178 5.19922 6.9834 5.19922Z" fill="#1DC9A0"/>
</g>
<defs>
<clipPath id="clip0_231_8437">
<rect width="12" height="11" fill="white"/>
</clipPath>
</defs>
</svg>
