<svg width="20" height="24" viewBox="0 0 20 24" fill="none" xmlns="http://www.w3.org/2000/svg">
<path d="M4.44298 5.66379C4.44298 8.7275 6.93474 11.2175 10.0004 11.2175C13.0662 11.2175 15.5577 8.71991 15.5577 5.65639C15.5577 2.59268 13.066 0.102717 10.0004 0.102717C6.93465 0.102717 4.44298 2.59277 4.44298 5.66379ZM6.13075 5.65639C6.13075 3.52828 7.86347 1.78948 10.0004 1.78948C12.1372 1.78948 13.87 3.52828 13.87 5.65639C13.87 7.78437 12.13 9.5233 10.0004 9.5233C7.87076 9.5233 6.13075 7.78437 6.13075 5.65639Z" fill="black" stroke="black" stroke-width="0.2"/>
<path d="M15.1626 23.8421H4.8376C2.16609 23.8421 0 21.3997 0 18.3875C0 15.3752 2.17511 12.9329 4.8376 12.9329H15.1626C17.8341 12.9329 20.0002 15.3854 20.0002 18.3875C20.0002 21.3895 17.8341 23.8421 15.1626 23.8421ZM4.8376 14.9682C3.1679 14.9682 1.80507 16.5048 1.80507 18.3875C1.80507 20.2701 3.1679 21.8068 4.8376 21.8068H15.1626C16.8323 21.8068 18.1951 20.2701 18.1951 18.3875C18.1951 16.5048 16.8323 14.9682 15.1626 14.9682H4.8376Z" fill="black"/>
</svg>
